<?xml version="1.0" encoding="UTF-8" standalone="no"?>
<!-- Created with Inkscape (http://www.inkscape.org/) -->

<svg
   xmlns:dc="http://purl.org/dc/elements/1.1/"
   xmlns:cc="http://creativecommons.org/ns#"
   xmlns:rdf="http://www.w3.org/1999/02/22-rdf-syntax-ns#"
   xmlns:svg="http://www.w3.org/2000/svg"
   xmlns="http://www.w3.org/2000/svg"
   xmlns:sodipodi="http://sodipodi.sourceforge.net/DTD/sodipodi-0.dtd"
   xmlns:inkscape="http://www.inkscape.org/namespaces/inkscape"
   aria-hidden="true"
   data-prefix="fas"
   data-icon="cogs"
   role="img"
   viewBox="0 0 23.999999 24"
   class="svg-inline--fa fa-cogs fa-w-20"
   style="font-size:48px"
   version="1.1"
   id="svg4623"
   sodipodi:docname="arrow-down-box-outline.svg"
   width="24"
   height="24"
   inkscape:version="0.92.2 2405546, 2018-03-11">
  <metadata
     id="metadata4629">
    <rdf:RDF>
      <cc:Work
         rdf:about="">
        <dc:format>image/svg+xml</dc:format>
        <dc:type
           rdf:resource="http://purl.org/dc/dcmitype/StillImage" />
        <dc:title></dc:title>
      </cc:Work>
    </rdf:RDF>
  </metadata>
  <defs
     id="defs4627" />
  <sodipodi:namedview
     pagecolor="#ffffff"
     bordercolor="#666666"
     borderopacity="1"
     objecttolerance="10"
     gridtolerance="10"
     guidetolerance="10"
     inkscape:pageopacity="0"
     inkscape:pageshadow="2"
     inkscape:window-width="2560"
     inkscape:window-height="1019"
     id="namedview4625"
     showgrid="true"
     units="px"
     width="24mm"
     inkscape:zoom="12.78125"
     inkscape:cx="17.898498"
     inkscape:cy="6.7052692"
     inkscape:window-x="0"
     inkscape:window-y="0"
     inkscape:window-maximized="1"
     inkscape:current-layer="svg4623">
    <inkscape:grid
       type="xygrid"
       id="grid4659"
       empspacing="8" />
  </sodipodi:namedview>
  <path
     style="stroke-width:1"
     d="m 11.017858,5.71428 h 1.964285 c 0.324107,0 0.589286,0.26518 0.589286,0.58929 V 12 h 3.290177 c 0.525447,0 0.785714,0.63348 0.417412,1.00669 l -4.861607,4.86161 c -0.230804,0.2308 -0.604018,0.2308 -0.834821,0 L 6.7209823,13.00669 C 6.347768,12.63348 6.6129466,12 7.138393,12 h 3.290178 V 6.30357 c 0,-0.32411 0.265179,-0.58929 0.589287,-0.58929 z M 23,3.35714 V 20.64285 C 23,21.94419 21.944195,23 20.642856,23 H 3.3571432 C 2.055804,23 1.0000005,21.94419 1.0000005,20.64285 V 3.35714 C 1.0000005,2.0558 2.055804,1 3.3571432,1 H 20.642856 C 21.944195,1 23,2.0558 23,3.35714 Z M 20.642856,20.34821 V 3.65178 c 0,-0.16205 -0.132589,-0.29464 -0.294643,-0.29464 H 3.6517861 c -0.1620536,0 -0.2946429,0.13259 -0.2946429,0.29464 v 16.69643 c 0,0.16206 0.1325893,0.29464 0.2946429,0.29464 H 20.348213 c 0.162055,0 0.294643,-0.13258 0.294643,-0.29464 z"
     id="path4711"
     inkscape:connector-curvature="0" />
</svg>
