<?xml version="1.0" encoding="UTF-8" standalone="no"?>
<!-- Created with Inkscape (http://www.inkscape.org/) -->

<svg
   xmlns:dc="http://purl.org/dc/elements/1.1/"
   xmlns:cc="http://creativecommons.org/ns#"
   xmlns:rdf="http://www.w3.org/1999/02/22-rdf-syntax-ns#"
   xmlns:svg="http://www.w3.org/2000/svg"
   xmlns="http://www.w3.org/2000/svg"
   xmlns:sodipodi="http://sodipodi.sourceforge.net/DTD/sodipodi-0.dtd"
   xmlns:inkscape="http://www.inkscape.org/namespaces/inkscape"
   aria-hidden="true"
   data-prefix="fas"
   data-icon="cogs"
   role="img"
   viewBox="0 0 23.999999 24"
   class="svg-inline--fa fa-cogs fa-w-20"
   style="font-size:48px"
   version="1.1"
   id="svg4623"
   sodipodi:docname="ban.svg"
   width="24"
   height="24"
   inkscape:version="0.92.2 2405546, 2018-03-11">
  <metadata
     id="metadata4629">
    <rdf:RDF>
      <cc:Work
         rdf:about="">
        <dc:format>image/svg+xml</dc:format>
        <dc:type
           rdf:resource="http://purl.org/dc/dcmitype/StillImage" />
        <dc:title></dc:title>
      </cc:Work>
    </rdf:RDF>
  </metadata>
  <defs
     id="defs4627" />
  <sodipodi:namedview
     pagecolor="#ffffff"
     bordercolor="#666666"
     borderopacity="1"
     objecttolerance="10"
     gridtolerance="10"
     guidetolerance="10"
     inkscape:pageopacity="0"
     inkscape:pageshadow="2"
     inkscape:window-width="2560"
     inkscape:window-height="1019"
     id="namedview4625"
     showgrid="true"
     units="px"
     width="24mm"
     inkscape:zoom="12.78125"
     inkscape:cx="60.782701"
     inkscape:cy="-3.4105562"
     inkscape:window-x="0"
     inkscape:window-y="0"
     inkscape:window-maximized="1"
     inkscape:current-layer="svg4623">
    <inkscape:grid
       type="xygrid"
       id="grid4659"
       empspacing="8" />
  </sodipodi:namedview>
  <path
     style="stroke-width:1"
     d="M 12,1 C 5.9248945,1 0.9999995,5.92485 0.9999995,12 0.9999995,18.07515 5.9248945,23 12,23 18.075105,23 23,18.0751 23,12 23,5.92489 18.075149,1 12,1 Z m 5.77092,5.22908 c 2.902934,2.90294 3.104839,7.33988 0.917124,10.45164 L 7.3192335,5.312 C 10.433121,3.12282 14.869581,3.32779 17.77092,6.22908 Z M 6.2290805,17.77092 C 3.3261445,14.86798 3.1242415,10.43104 5.3119555,7.31928 L 16.680766,18.688 C 13.566924,20.87718 9.1304195,20.67226 6.2290805,17.77092 Z"
     id="path4711"
     inkscape:connector-curvature="0" />
</svg>
