<?xml version="1.0" encoding="UTF-8" standalone="no"?>
<!-- Created with Inkscape (http://www.inkscape.org/) -->

<svg
   xmlns:dc="http://purl.org/dc/elements/1.1/"
   xmlns:cc="http://creativecommons.org/ns#"
   xmlns:rdf="http://www.w3.org/1999/02/22-rdf-syntax-ns#"
   xmlns:svg="http://www.w3.org/2000/svg"
   xmlns="http://www.w3.org/2000/svg"
   xmlns:sodipodi="http://sodipodi.sourceforge.net/DTD/sodipodi-0.dtd"
   xmlns:inkscape="http://www.inkscape.org/namespaces/inkscape"
   aria-hidden="true"
   data-prefix="fas"
   data-icon="cogs"
   role="img"
   viewBox="0 0 23.999999 24"
   class="svg-inline--fa fa-cogs fa-w-20"
   style="font-size:48px"
   version="1.1"
   id="svg4623"
   sodipodi:docname="settings.svg"
   width="24"
   height="24"
   inkscape:version="0.92.2 2405546, 2018-03-11">
  <metadata
     id="metadata4629">
    <rdf:RDF>
      <cc:Work
         rdf:about="">
        <dc:format>image/svg+xml</dc:format>
        <dc:type
           rdf:resource="http://purl.org/dc/dcmitype/StillImage" />
        <dc:title></dc:title>
      </cc:Work>
    </rdf:RDF>
  </metadata>
  <defs
     id="defs4627" />
  <sodipodi:namedview
     pagecolor="#ffffff"
     bordercolor="#666666"
     borderopacity="1"
     objecttolerance="10"
     gridtolerance="10"
     guidetolerance="10"
     inkscape:pageopacity="0"
     inkscape:pageshadow="2"
     inkscape:window-width="2560"
     inkscape:window-height="1019"
     id="namedview4625"
     showgrid="true"
     units="px"
     width="24mm"
     inkscape:zoom="18.075417"
     inkscape:cx="31.32085"
     inkscape:cy="7.074425"
     inkscape:window-x="0"
     inkscape:window-y="0"
     inkscape:window-maximized="1"
     inkscape:current-layer="svg4623">
    <inkscape:grid
       type="xygrid"
       id="grid4659"
       empspacing="8" />
  </sodipodi:namedview>
  <path
     style="stroke-width:1.00000024"
     d="M 11.964844 1 C 11.339431 1.0018413 10.719166 1.0550928 10.115234 1.1582031 C 9.5554932 1.2564034 9.1523438 1.7478484 9.1523438 2.3125 L 9.1523438 3.9667969 C 8.155611 4.3154079 7.2426335 4.8507656 6.4570312 5.5234375 L 5.0292969 4.6992188 C 4.5333854 4.414438 3.9043567 4.5219931 3.5410156 4.9589844 C 2.7455934 5.9115271 1.9057413 7.0012297 1.46875 8.1894531 C 1.2674394 8.7246446 1.4884636 9.3285004 1.984375 9.6132812 L 3.6191406 10.443359 C 3.4276501 11.474462 3.4276501 12.530448 3.6191406 13.556641 L 1.984375 14.380859 C 1.4884636 14.67055 1.2723494 15.275356 1.46875 15.810547 C 1.9057413 16.993861 2.7455934 18.084566 3.5410156 19.037109 C 3.9043567 19.4741 4.5382955 19.581656 5.0292969 19.296875 L 6.4570312 18.476562 C 7.2426335 19.149235 8.1556109 19.679682 9.1523438 20.033203 L 9.1523438 21.683594 C 9.1523437 22.258066 9.5701144 22.743597 10.134766 22.841797 C 11.38682 23.057838 12.653465 23.048018 13.861328 22.841797 C 14.42107 22.743597 14.830078 22.253156 14.830078 21.683594 L 14.830078 20.033203 C 15.826811 19.684592 16.739789 19.149234 17.525391 18.476562 L 18.953125 19.300781 C 19.449036 19.585562 20.078065 19.478007 20.441406 19.041016 C 21.236828 18.088473 22.096212 16.998771 22.533203 15.810547 C 22.729603 15.270446 22.51349 14.66564 22.017578 14.380859 L 20.363281 13.556641 C 20.554771 12.525538 20.554771 11.470556 20.363281 10.439453 L 22.017578 9.6132812 C 22.51348 9.3235905 22.704213 8.7207384 22.507812 8.1855469 C 22.07082 6.9973235 21.236828 5.9076209 20.441406 4.9550781 C 20.078065 4.5180869 19.444126 4.4085786 18.953125 4.6933594 L 17.525391 5.5195312 C 16.739789 4.8468592 15.826811 4.3164116 14.830078 3.9628906 L 14.830078 2.3125 C 14.830078 1.7380284 14.412308 1.2524969 13.847656 1.1542969 C 13.221629 1.0487316 12.590257 0.99815875 11.964844 1 z M 12.212891 8.4550781 C 14.885473 8.6198704 16.767937 11.758217 14.587891 14.59375 C 10.80718 17.500478 6.4917092 13.183055 9.3984375 9.4023438 C 10.343615 8.6756617 11.32203 8.4001474 12.212891 8.4550781 z "
     id="path4637" />
</svg>
