<?xml version="1.0" encoding="UTF-8" standalone="no"?>
<!-- Created with Inkscape (http://www.inkscape.org/) -->

<svg
   xmlns:dc="http://purl.org/dc/elements/1.1/"
   xmlns:cc="http://creativecommons.org/ns#"
   xmlns:rdf="http://www.w3.org/1999/02/22-rdf-syntax-ns#"
   xmlns:svg="http://www.w3.org/2000/svg"
   xmlns="http://www.w3.org/2000/svg"
   xmlns:sodipodi="http://sodipodi.sourceforge.net/DTD/sodipodi-0.dtd"
   xmlns:inkscape="http://www.inkscape.org/namespaces/inkscape"
   aria-hidden="true"
   data-prefix="fas"
   data-icon="cogs"
   role="img"
   viewBox="0 0 23.999999 24"
   class="svg-inline--fa fa-cogs fa-w-20"
   style="font-size:48px"
   version="1.1"
   id="svg4623"
   sodipodi:docname="window.svg"
   width="24"
   height="24"
   inkscape:version="0.92.2 2405546, 2018-03-11">
  <metadata
     id="metadata4629">
    <rdf:RDF>
      <cc:Work
         rdf:about="">
        <dc:format>image/svg+xml</dc:format>
        <dc:type
           rdf:resource="http://purl.org/dc/dcmitype/StillImage" />
        <dc:title></dc:title>
      </cc:Work>
    </rdf:RDF>
  </metadata>
  <defs
     id="defs4627" />
  <sodipodi:namedview
     pagecolor="#ffffff"
     bordercolor="#666666"
     borderopacity="1"
     objecttolerance="10"
     gridtolerance="10"
     guidetolerance="10"
     inkscape:pageopacity="0"
     inkscape:pageshadow="2"
     inkscape:window-width="2560"
     inkscape:window-height="1019"
     id="namedview4625"
     showgrid="true"
     units="px"
     width="24mm"
     inkscape:zoom="18.075417"
     inkscape:cx="-13.108606"
     inkscape:cy="17.188199"
     inkscape:window-x="0"
     inkscape:window-y="0"
     inkscape:window-maximized="1"
     inkscape:current-layer="svg4623">
    <inkscape:grid
       type="xygrid"
       id="grid4659"
       empspacing="8" />
  </sodipodi:namedview>
  <path
     style="stroke-width:1.00000012"
     d="M 20.9375,2.0000005 H 3.0625 C 1.92383,2.0000005 1,2.9598238 1,4.1428576 V 19.857143 C 1,21.040177 1.92383,22 3.0625,22 h 17.875 C 22.07617,22 23,21.040177 23,19.857143 V 4.1428576 C 23,2.9598238 22.07617,2.0000005 20.9375,2.0000005 Z M 12,5.5714289 c 0,-0.7901817 0.61445,-1.4285713 1.375,-1.4285713 0.76055,0 1.375,0.6383896 1.375,1.4285713 0,0.7901818 -0.61445,1.4285714 -1.375,1.4285714 -0.76055,0 -1.375,-0.6383896 -1.375,-1.4285714 z m -4.125,0 c 0,-0.7901817 0.61445,-1.4285713 1.375,-1.4285713 0.76055,0 1.375,0.6383896 1.375,1.4285713 0,0.7901818 -0.61445,1.4285714 -1.375,1.4285714 -0.76055,0 -1.375,-0.6383896 -1.375,-1.4285714 z m -4.125,0 c 0,-0.7901817 0.61445,-1.4285713 1.375,-1.4285713 0.76055,0 1.375,0.6383896 1.375,1.4285713 0,0.7901818 -0.61445,1.4285714 -1.375,1.4285714 -0.76055,0 -1.375,-0.6383896 -1.375,-1.4285714 z M 20.9375,19.589289 c 0,0.147314 -0.11602,0.267854 -0.25781,0.267854 H 3.32031 c -0.14179,0 -0.25781,-0.12054 -0.25781,-0.267854 V 9.1428574 h 17.875 z"
     id="path4711"
     inkscape:connector-curvature="0" />
</svg>
